<?xml version="1.0" standalone="no"?>
<!DOCTYPE svg PUBLIC "-//W3C//DTD SVG 20010904//EN"
 "http://www.w3.org/TR/2001/REC-SVG-20010904/DTD/svg10.dtd">
<svg version="1.0" xmlns="http://www.w3.org/2000/svg"
 width="220.000000pt" height="220.000000pt" viewBox="0 0 220.000000 220.000000"
 preserveAspectRatio="xMidYMid meet">
<metadata>
Created by potrace 1.14, written by Peter Selinger 2001-2017
</metadata>
<g transform="translate(0.000000,220.000000) scale(0.100000,-0.100000)"
fill="#000000" stroke="none">
<path d="M10 1179 l0 -239 223 0 224 0 -1 238 -1 237 -222 1 -223 1 0 -238z
m323 97 c2 -6 3 -54 2 -106 l-1 -95 -102 -3 -102 -3 0 109 0 108 99 1 c67 1
101 -3 104 -11z"/>
<path d="M2180 1391 c0 -6 4 -13 10 -16 6 -3 7 1 4 9 -7 18 -14 21 -14 7z"/>
<path d="M575 1281 l0 -98 70 0 c72 0 83 6 84 47 0 11 -5 9 -17 -7 -16 -20
-37 -27 -69 -24 -18 1 -17 71 0 71 8 0 19 -10 24 -22 9 -19 11 -14 10 31 0 51
-1 53 -15 33 -8 -12 -18 -22 -23 -22 -14 0 -11 67 4 73 16 6 57 -10 57 -23 0
-5 4 -10 10 -10 5 0 8 10 6 23 -3 20 -9 22 -72 24 l-69 2 0 -98z"/>
<path d="M760 1370 c20 -11 21 -177 1 -172 -7 1 -10 -2 -7 -7 3 -5 42 -8 86
-8 69 1 80 3 80 18 0 10 3 24 6 33 3 9 2 16 -4 16 -5 0 -12 -9 -15 -20 -6 -22
-42 -39 -69 -32 -15 4 -18 16 -18 87 0 58 4 85 13 88 6 2 -10 5 -38 5 -31 0
-44 -3 -35 -8z"/>
<path d="M954 1369 c-3 -5 -1 -9 5 -9 6 0 8 -35 7 -89 l-3 -89 70 2 c68 1 71
2 78 29 9 32 -1 36 -19 7 -8 -13 -23 -20 -45 -20 -30 0 -32 3 -34 35 -2 39 18
48 36 18 8 -14 10 -7 10 32 0 43 -2 47 -11 28 -17 -35 -37 -29 -35 10 3 49 53
58 76 14 10 -20 10 -20 8 8 l-2 30 -68 1 c-37 1 -70 -2 -73 -7z"/>
<path d="M1171 1350 c-81 -82 5 -197 122 -164 27 8 32 15 35 47 3 36 2 37 -27
35 -27 -2 -29 -5 -24 -31 7 -35 -8 -48 -45 -38 -32 9 -48 53 -38 105 13 67 58
85 102 41 14 -14 26 -25 28 -25 2 0 3 12 4 28 0 26 -1 27 -62 30 -59 3 -65 1
-95 -28z"/>
<path d="M1415 1294 c-21 -46 -45 -89 -54 -94 -9 -5 -14 -10 -11 -10 3 -1 21
-3 40 -6 30 -4 32 -3 17 9 -29 20 -12 47 29 45 37 -1 61 -27 44 -44 -6 -6 5
-10 30 -10 22 0 39 2 37 5 -15 28 -77 164 -77 171 0 5 -4 11 -9 14 -4 3 -25
-33 -46 -80z m40 -21 c5 -20 3 -23 -18 -23 -24 0 -25 2 -14 30 12 31 20 29 32
-7z"/>
<path d="M1580 1365 c8 -10 11 -42 9 -100 -4 -85 -4 -85 21 -85 20 0 22 2 10
10 -11 7 -15 29 -16 77 l-2 68 42 -49 c22 -27 52 -63 66 -79 l25 -29 2 93 c1
64 5 94 15 100 9 6 2 9 -20 9 -28 0 -31 -2 -20 -14 9 -8 12 -28 10 -56 l-4
-43 -27 34 c-46 60 -69 79 -97 79 -22 0 -24 -2 -14 -15z"/>
<path d="M1828 1363 c-81 -51 -56 -167 39 -180 44 -6 93 15 93 39 0 6 -9 3
-20 -7 -10 -9 -31 -17 -46 -17 -41 0 -59 26 -59 83 0 41 5 54 23 69 28 23 61
18 84 -12 l18 -23 0 30 c0 29 -1 30 -53 32 -35 2 -61 -3 -79 -14z"/>
<path d="M1994 1364 c17 -12 21 -151 5 -170 -7 -8 10 -11 68 -10 75 1 77 2 84
29 9 32 -1 35 -19 6 -10 -15 -21 -19 -45 -17 -29 3 -32 6 -33 36 0 33 21 45
32 17 12 -30 19 -14 15 33 -3 39 -5 43 -12 25 -5 -13 -14 -23 -22 -23 -17 0
-17 68 0 75 20 7 63 -13 63 -30 0 -8 4 -15 9 -15 5 0 8 8 6 18 -2 9 -4 23 -4
30 -1 9 -22 12 -81 10 -60 -2 -77 -6 -66 -14z"/>
<path d="M965 1126 c-21 -21 -23 -29 -14 -49 6 -14 29 -34 50 -46 51 -29 55
-64 7 -59 -23 2 -36 10 -43 26 -13 30 -20 28 -20 -7 -1 -26 3 -30 37 -35 43
-7 72 4 88 35 15 27 -8 62 -55 85 -42 20 -49 54 -10 54 14 0 30 -9 37 -20 17
-27 24 -25 24 4 0 16 -6 24 -15 24 -9 -1 -26 2 -38 6 -17 5 -29 1 -48 -18z"/>
<path d="M1149 1132 c-69 -35 -68 -129 2 -166 84 -45 169 38 128 127 -21 46
-80 64 -130 39z m81 -21 c14 -27 13 -104 -2 -123 -39 -48 -82 -15 -81 62 1 28
7 57 13 65 18 21 57 19 70 -4z"/>
<path d="M1528 1142 c-23 -3 -28 -8 -27 -30 0 -16 3 -21 6 -12 7 18 23 30 41
30 11 0 13 -19 10 -88 l-4 -88 33 0 c18 1 33 4 33 9 0 4 -4 7 -8 7 -5 0 -8 35
-8 77 1 66 4 78 19 81 9 2 20 -4 23 -12 9 -22 23 -20 21 3 -1 16 -10 20 -57
23 -30 2 -67 2 -82 0z"/>
<path d="M569 1131 c10 -6 12 -30 10 -92 l-4 -84 25 1 c23 1 25 5 24 42 0 23
2 42 6 42 3 0 20 -19 36 -42 l30 -43 101 1 c109 1 123 5 123 35 0 18 -1 18
-21 -2 -13 -13 -30 -19 -47 -17 -22 3 -26 8 -27 36 -1 38 21 44 35 10 7 -18 9
-11 9 32 0 44 -2 50 -10 32 -12 -32 -34 -22 -34 14 1 38 34 44 64 13 l21 -23
0 27 0 27 -77 -1 c-43 0 -72 -3 -65 -6 14 -6 17 -158 3 -167 -16 -10 -35 3
-60 39 -21 31 -22 37 -9 48 26 21 29 46 8 67 -16 16 -33 20 -87 20 -42 0 -63
-4 -54 -9z m101 -16 c15 -18 10 -45 -13 -59 -21 -13 -38 7 -32 39 2 11 4 23 4
28 2 12 28 8 41 -8z"/>
<path d="M1318 1133 c16 -6 17 -163 0 -163 -29 0 6 -13 37 -14 35 -1 42 4 28
18 -9 9 -11 66 -2 66 3 0 18 -17 32 -39 18 -27 34 -40 56 -43 17 -3 31 -1 31
4 0 4 -3 8 -7 8 -5 0 -18 16 -31 34 l-24 34 21 21 c22 22 19 47 -7 69 -9 7
-43 12 -81 11 -36 0 -60 -3 -53 -6z m106 -25 c14 -23 -3 -53 -30 -53 -18 0
-21 14 -15 66 2 16 32 7 45 -13z"/>
<path d="M1716 1098 c3 -5 10 -6 15 -3 13 9 11 12 -6 12 -8 0 -12 -4 -9 -9z"/>
<path d="M1756 1098 c3 -5 10 -6 15 -3 13 9 11 12 -6 12 -8 0 -12 -4 -9 -9z"/>
<path d="M1810 1099 c0 -5 5 -7 10 -4 6 3 10 8 10 11 0 2 -4 4 -10 4 -5 0 -10
-5 -10 -11z"/>
<path d="M1876 1098 c3 -5 10 -6 15 -3 13 9 11 12 -6 12 -8 0 -12 -4 -9 -9z"/>
<path d="M1976 1098 c3 -4 11 -5 19 -1 21 7 19 12 -4 10 -11 0 -18 -5 -15 -9z"/>
<path d="M2056 1098 c3 -5 10 -6 15 -3 13 9 11 12 -6 12 -8 0 -12 -4 -9 -9z"/>
<path d="M2090 1099 c0 -5 5 -7 10 -4 6 3 10 8 10 11 0 2 -4 4 -10 4 -5 0 -10
-5 -10 -11z"/>
<path d="M1714 1067 c3 -10 6 -23 6 -28 0 -5 5 -9 10 -9 14 0 12 13 -6 36 -14
17 -15 17 -10 1z"/>
<path d="M1771 1050 c1 -19 3 -29 6 -22 3 9 9 10 18 2 10 -8 13 -4 13 15 0 29
-18 46 -19 18 0 -16 -1 -16 -9 2 -7 16 -9 13 -9 -15z"/>
<path d="M1856 1072 c-6 -10 31 -48 38 -41 2 2 -4 14 -14 27 -10 12 -21 18
-24 14z"/>
<path d="M1910 1050 c0 -30 19 -35 42 -12 9 9 9 15 0 24 -23 23 -42 18 -42
-12z m30 -2 c0 -16 -3 -19 -11 -11 -6 6 -8 16 -5 22 11 17 16 13 16 -11z"/>
<path d="M2014 1067 c3 -10 6 -23 6 -28 0 -5 5 -9 10 -9 14 0 12 13 -6 36 -14
17 -15 17 -10 1z"/>
<path d="M2119 1062 c12 -22 41 -48 41 -36 -1 11 -36 54 -44 54 -4 0 -2 -8 3
-18z"/>
<path d="M1820 1051 c0 -11 5 -23 10 -26 6 -4 10 5 10 19 0 14 -4 26 -10 26
-5 0 -10 -9 -10 -19z"/>
<path d="M1973 1044 c-9 -20 -9 -23 1 -15 9 7 16 7 24 -1 16 -16 15 4 0 25
-12 15 -14 15 -25 -9z"/>
<path d="M2063 1044 c-9 -20 -9 -23 1 -15 9 7 16 7 24 -1 13 -13 16 -1 6 26
-9 23 -17 20 -31 -10z"/>
<path d="M1716 1002 c-3 -5 1 -9 9 -9 8 0 12 4 9 9 -3 4 -7 8 -9 8 -2 0 -6 -4
-9 -8z"/>
<path d="M1916 1002 c-3 -4 4 -9 15 -9 23 -2 25 3 4 10 -8 4 -16 3 -19 -1z"/>
<path d="M1995 1000 c-3 -5 -1 -10 4 -10 6 0 11 5 11 10 0 6 -2 10 -4 10 -3 0
-8 -4 -11 -10z"/>
<path d="M270 850 c0 -5 5 -10 10 -10 6 0 10 5 10 10 0 6 -4 10 -10 10 -5 0
-10 -4 -10 -10z"/>
<path d="M457 846 c-8 -9 -12 -26 -9 -46 6 -39 18 -28 26 23 6 41 4 44 -17 23z"/>
<path d="M26 814 c-9 -20 -14 -39 -10 -43 4 -3 9 0 11 7 6 15 35 16 51 0 16
-16 15 -5 -2 37 -8 19 -19 35 -24 35 -4 0 -16 -16 -26 -36z m34 -4 c0 -5 -2
-10 -4 -10 -3 0 -8 5 -11 10 -3 6 -1 10 4 10 6 0 11 -4 11 -10z"/>
<path d="M510 843 c0 -4 10 -24 21 -43 l21 -34 19 34 c20 39 23 50 11 50 -5 0
-15 -12 -22 -27 l-13 -28 -6 24 c-6 23 -31 43 -31 24z"/>
<path d="M642 838 c-31 -31 8 -81 46 -59 16 10 14 12 -18 15 -8 0 -16 9 -18
19 -3 13 3 17 22 17 14 0 26 5 26 10 0 14 -43 13 -58 -2z"/>
<path d="M1130 808 l0 -42 23 24 22 25 3 -23 c2 -12 8 -20 13 -17 12 8 12 75
-1 75 -5 0 -10 -7 -10 -15 0 -8 -7 -15 -15 -15 -8 0 -15 7 -15 15 0 8 -4 15
-10 15 -5 0 -10 -19 -10 -42z"/>
<path d="M1286 842 c-7 -12 -1 -61 9 -70 3 -3 11 0 17 6 8 8 15 9 25 1 7 -6
21 -8 30 -4 16 7 15 9 -7 15 -25 8 -25 8 -2 9 36 2 20 26 -17 27 -18 1 -36 7
-41 14 -5 8 -10 9 -14 2z m34 -37 c0 -8 -4 -15 -10 -15 -5 0 -10 7 -10 15 0 8
5 15 10 15 6 0 10 -7 10 -15z"/>
<path d="M1390 816 c0 -19 5 -38 10 -41 6 -4 10 10 10 34 0 23 -4 41 -10 41
-5 0 -10 -15 -10 -34z"/>
<path d="M1690 840 c0 -5 -9 -10 -19 -10 -23 0 -35 -28 -20 -46 6 -7 20 -12
32 -10 15 2 21 11 23 39 1 21 -2 37 -7 37 -5 0 -9 -4 -9 -10z m-9 -43 c-13
-13 -26 -3 -16 12 3 6 11 8 17 5 6 -4 6 -10 -1 -17z"/>
<path d="M1750 811 c0 -39 13 -56 23 -28 3 9 7 9 19 -1 14 -11 16 -8 15 25 -2
34 -5 38 -29 41 -27 3 -28 1 -28 -37z m45 9 c-3 -5 -10 -10 -16 -10 -5 0 -9 5
-9 10 0 6 7 10 16 10 8 0 12 -4 9 -10z"/>
<path d="M2066 843 c-11 -11 -6 -52 7 -60 18 -11 60 -11 75 1 11 7 8 12 -10
22 -19 11 -20 13 -5 14 10 0 15 5 12 10 -4 7 -12 7 -25 0 -14 -7 -23 -6 -33 5
-8 8 -17 11 -21 8z m44 -51 c-25 -4 -35 2 -26 17 5 7 13 7 27 -2 20 -12 20
-12 -1 -15z"/>
<path d="M305 813 c8 -33 22 -50 32 -39 4 4 1 11 -7 16 -11 7 -11 12 -2 23 10
12 9 16 -4 21 -25 10 -27 8 -19 -21z"/>
<path d="M1050 816 c0 -25 26 -54 37 -42 4 4 1 11 -7 16 -11 7 -11 12 -2 23
10 12 9 16 -4 21 -23 9 -24 8 -24 -18z"/>
<path d="M127 810 c-6 -24 16 -44 41 -36 19 7 29 56 11 56 -5 0 -9 -9 -9 -21
0 -12 -5 -19 -12 -16 -7 2 -12 11 -10 21 4 23 -15 20 -21 -4z"/>
<path d="M200 798 c0 -34 15 -29 22 7 4 17 7 16 18 -10 11 -24 14 -26 17 -12
7 29 -5 47 -32 47 -21 0 -25 -4 -25 -32z"/>
<path d="M270 806 c0 -14 5 -28 10 -31 6 -4 10 7 10 24 0 17 -4 31 -10 31 -5
0 -10 -11 -10 -24z"/>
<path d="M377 818 c-6 -18 11 -48 27 -48 20 0 37 25 30 44 -7 19 -50 22 -57 4z
m43 -19 c0 -5 -7 -9 -15 -9 -15 0 -20 12 -9 23 8 8 24 -1 24 -14z"/>
<path d="M717 823 c-13 -12 -7 -41 10 -47 21 -8 48 17 40 38 -6 16 -38 22 -50
9z m33 -18 c0 -8 -4 -15 -10 -15 -5 0 -10 7 -10 15 0 8 5 15 10 15 6 0 10 -7
10 -15z"/>
<path d="M780 800 c0 -37 7 -38 22 -2 l11 27 7 -30 c6 -25 8 -27 14 -12 12 26
-1 47 -29 47 -21 0 -25 -5 -25 -30z"/>
<path d="M850 806 c0 -14 5 -28 10 -31 6 -3 10 3 10 14 0 11 5 23 10 26 6 3
10 -3 10 -14 0 -11 5 -23 10 -26 6 -4 10 7 10 24 0 28 -3 31 -30 31 -25 0 -30
-4 -30 -24z"/>
<path d="M924 816 c-7 -19 12 -46 32 -46 20 0 17 18 -3 23 -13 3 -12 5 5 6 29
1 24 25 -6 29 -13 2 -25 -3 -28 -12z"/>
<path d="M990 810 c-8 -16 -6 -21 11 -31 15 -8 24 -8 32 0 8 8 6 11 -6 11 -9
0 -17 7 -17 15 0 9 6 12 15 9 8 -4 15 -1 15 5 0 19 -39 12 -50 -9z"/>
<path d="M1214 815 c-4 -9 0 -23 8 -31 20 -20 50 -7 46 20 -4 26 -45 35 -54
11z m36 -10 c0 -8 -4 -15 -10 -15 -5 0 -10 7 -10 15 0 8 5 15 10 15 6 0 10 -7
10 -15z"/>
<path d="M1420 820 c0 -5 8 -14 18 -19 16 -10 16 -10 0 -11 -10 0 -18 -4 -18
-10 0 -13 21 -13 40 0 13 9 13 12 -3 24 -18 14 -18 14 0 19 12 3 9 5 -9 6 -16
0 -28 -3 -28 -9z"/>
<path d="M1524 822 c19 -8 18 -9 -4 -15 -23 -6 -24 -8 -8 -23 22 -22 50 -11
46 18 -2 16 -11 24 -28 25 -21 2 -22 1 -6 -5z"/>
<path d="M1573 805 c0 -14 3 -28 8 -31 5 -3 9 3 9 14 0 32 13 34 26 5 l12 -28
1 33 c1 29 -2 32 -28 32 -24 0 -28 -4 -28 -25z"/>
<path d="M1824 816 c-7 -19 12 -46 32 -46 17 0 18 17 2 23 -8 3 -5 6 5 6 25 1
16 25 -11 29 -13 2 -25 -3 -28 -12z"/>
<path d="M1890 815 c0 -7 6 -16 13 -18 10 -4 10 -6 0 -6 -7 -1 -13 -5 -13 -10
0 -10 38 -7 48 4 3 3 -3 12 -14 20 -16 12 -16 14 -3 15 9 0 21 -11 27 -25 14
-29 37 -33 51 -7 15 29 0 40 -56 40 -38 1 -53 -3 -53 -13z m100 -16 c0 -5 -7
-9 -15 -9 -15 0 -20 12 -9 23 8 8 24 -1 24 -14z"/>
<path d="M2015 805 c0 -14 5 -25 12 -25 7 0 10 7 7 15 -4 8 -1 15 5 15 6 0 11
5 11 10 0 6 -8 10 -17 10 -12 0 -18 -8 -18 -25z"/>
<path d="M590 806 c0 -2 7 -6 15 -10 8 -3 15 -1 15 4 0 6 -7 10 -15 10 -8 0
-15 -2 -15 -4z"/>
</g>
</svg>
